<svg width="10" height="10" viewBox="0 0 10 10" fill="none" xmlns="http://www.w3.org/2000/svg">
<path d="M0 7.13C0 7.19627 0.0537258 7.25 0.12 7.25H6.10908C6.21581 7.25 6.26943 7.37888 6.1942 7.45459L3.86791 9.79541C3.79268 9.87112 3.8463 10 3.95303 10H6.47181C6.50377 10 6.53441 9.98725 6.55693 9.96459L9.91594 6.58459C9.96245 6.53779 9.96245 6.46221 9.91594 6.41541L6.30848 2.78541C6.28596 2.76275 6.25532 2.75 6.22337 2.75H3.95303C3.8463 2.75 3.79268 2.87888 3.86791 2.95459L6.1942 5.29541C6.26943 5.37111 6.21581 5.5 6.10908 5.5H1.85913C1.79286 5.5 1.73913 5.44627 1.73913 5.38V0.12C1.73913 0.0537254 1.6854 -2.98023e-07 1.61913 -2.98023e-07H0.12C0.0537257 -2.98023e-07 0 0.0537255 0 0.12V7.13Z" fill="#F1F1F1"/>
</svg>
