<svg width="693" height="330" viewBox="0 0 693 330" fill="none" xmlns="http://www.w3.org/2000/svg">
<path d="M15.384 311.032C15.264 310.432 15.12 309.904 14.952 309.4L17.088 309.04C17.136 309.472 17.232 310.168 17.328 310.696C17.472 311.752 20.112 324.928 20.448 326.512C20.616 327.184 20.808 328 21.048 328.696L18.84 329.104C18.72 328.288 18.648 327.544 18.48 326.848C18.24 325.336 15.672 312.28 15.384 311.032ZM8.616 314.512C9.216 314.464 9.864 314.416 10.632 314.344C12.792 314.104 21.072 312.784 23.352 312.328C24.048 312.208 24.672 312.064 25.08 311.944L25.464 313.96C25.104 313.984 24.384 314.104 23.736 314.2C21.264 314.584 13.08 315.88 10.968 316.24C10.32 316.36 9.744 316.48 9.048 316.648L8.616 314.512ZM8.544 321.424C9.12 321.4 10.032 321.304 10.656 321.208C13.224 320.872 22.152 319.408 25.032 318.88C25.944 318.712 26.64 318.544 27.144 318.4L27.552 320.416C27.048 320.464 26.28 320.608 25.392 320.752C22.2 321.232 13.536 322.648 11.112 323.08C10.176 323.248 9.504 323.392 8.976 323.536L8.544 321.424ZM30.504 317.608C31.248 317.68 32.496 317.752 33.864 317.752C35.616 317.752 45.24 317.752 47.016 317.752C48.216 317.752 49.056 317.656 49.608 317.608V319.96C49.104 319.936 48.096 319.864 47.04 319.864C45.216 319.864 35.64 319.864 33.864 319.864C32.544 319.864 31.272 319.912 30.504 319.96V317.608ZM55.704 310.144C56.328 310.216 57.072 310.264 57.84 310.264C59.136 310.264 65.88 310.264 67.296 310.264C68.04 310.264 68.88 310.216 69.456 310.144V312.136C68.904 312.088 68.064 312.064 67.248 312.064C65.904 312.064 59.16 312.064 57.84 312.064C57.12 312.064 56.352 312.088 55.704 312.136V310.144ZM71.232 316.456C71.112 316.696 70.944 316.984 70.896 317.176C70.272 319.528 69.192 322.024 67.392 323.992C64.896 326.752 61.872 328.144 58.824 329.008L57.336 327.304C60.72 326.608 63.72 325.048 65.784 322.888C67.224 321.376 68.184 319.336 68.616 317.584C67.44 317.584 57.336 317.584 55.896 317.584C55.32 317.584 54.408 317.608 53.544 317.68V315.664C54.408 315.736 55.224 315.808 55.896 315.808C57.072 315.808 67.296 315.808 68.52 315.808C69.072 315.808 69.6 315.736 69.864 315.616L71.232 316.456ZM77.688 310.432C79.368 311.56 82.464 314.056 83.784 315.376L82.296 316.912C81.072 315.664 78.096 313.072 76.296 311.896L77.688 310.432ZM75.624 326.512C79.8 325.888 82.92 324.424 85.2 323.008C88.92 320.68 91.824 317.128 93.216 314.152L94.368 316.216C92.736 319.192 89.952 322.456 86.328 324.736C83.904 326.248 80.88 327.736 76.872 328.48L75.624 326.512Z" fill="#F1F1F1"/>
<path d="M349.5 316.336C350.892 316.336 352.044 317.488 352.044 318.88C352.044 320.296 350.892 321.448 349.5 321.448C348.084 321.448 346.932 320.296 346.932 318.88C346.932 317.488 348.084 316.336 349.5 316.336Z" fill="#F1F1F1"/>
<path d="M623.664 313C623.472 313.336 623.232 313.888 623.112 314.272C622.464 316.696 621 319.936 618.864 322.552C616.68 325.216 613.8 327.4 609.312 329.08L607.56 327.496C611.976 326.2 614.952 324.04 617.16 321.472C619.008 319.288 620.496 316.168 620.976 313.984H612.096L612.864 312.256C613.824 312.256 619.752 312.256 620.496 312.256C621.144 312.256 621.696 312.184 622.08 312.04L623.664 313ZM615.624 309.376C615.24 310 614.808 310.816 614.568 311.248C613.152 313.912 610.656 317.344 606.792 319.888L605.112 318.664C609.264 316.192 611.616 312.688 612.672 310.552C612.912 310.12 613.272 309.256 613.416 308.632L615.624 309.376ZM630.384 310.144C631.008 310.216 631.752 310.264 632.52 310.264C633.816 310.264 640.56 310.264 641.976 310.264C642.72 310.264 643.56 310.216 644.136 310.144V312.136C643.584 312.088 642.744 312.064 641.928 312.064C640.584 312.064 633.84 312.064 632.52 312.064C631.8 312.064 631.032 312.088 630.384 312.136V310.144ZM645.912 316.456C645.792 316.696 645.624 316.984 645.576 317.176C644.952 319.528 643.872 322.024 642.072 323.992C639.576 326.752 636.552 328.144 633.504 329.008L632.016 327.304C635.4 326.608 638.4 325.048 640.464 322.888C641.904 321.376 642.864 319.336 643.296 317.584C642.12 317.584 632.016 317.584 630.576 317.584C630 317.584 629.088 317.608 628.224 317.68V315.664C629.088 315.736 629.904 315.808 630.576 315.808C631.752 315.808 641.976 315.808 643.2 315.808C643.752 315.808 644.28 315.736 644.544 315.616L645.912 316.456ZM649.344 317.608C650.088 317.68 651.336 317.752 652.704 317.752C654.456 317.752 664.08 317.752 665.856 317.752C667.056 317.752 667.896 317.656 668.448 317.608V319.96C667.944 319.936 666.936 319.864 665.88 319.864C664.056 319.864 654.48 319.864 652.704 319.864C651.384 319.864 650.112 319.912 649.344 319.96V317.608ZM689.904 313C689.712 313.336 689.472 313.888 689.352 314.272C688.704 316.696 687.24 319.936 685.104 322.552C682.92 325.216 680.04 327.4 675.552 329.08L673.8 327.496C678.216 326.2 681.192 324.04 683.4 321.472C685.248 319.288 686.736 316.168 687.216 313.984H678.336L679.104 312.256C680.064 312.256 685.992 312.256 686.736 312.256C687.384 312.256 687.936 312.184 688.32 312.04L689.904 313ZM681.864 309.376C681.48 310 681.048 310.816 680.808 311.248C679.392 313.912 676.896 317.344 673.032 319.888L671.352 318.664C675.504 316.192 677.856 312.688 678.912 310.552C679.152 310.12 679.512 309.256 679.656 308.632L681.864 309.376Z" fill="#F1F1F1"/>
<g clip-path="url(#clip0_30_21)">
<path d="M30.632 -0.85601V64.424L87.848 -0.85601H116.84L63.272 58.856L119.912 137H90.92L47.336 76.904L30.632 95.336V137H6.056V-0.85601H30.632ZM149.14 -0.85601V137H124.564V-0.85601H149.14ZM167.509 -0.85601H260.821V20.648H191.701V55.208H249.877V76.712H191.701V115.496H260.821V137H167.509V-0.85601ZM298.404 83.624V137H273.828V-0.85601H328.932C359.653 -0.85601 378.852 13.544 378.852 41.384C378.852 63.08 366.948 76.904 346.788 81.704L382.308 137H354.276L320.676 83.624H298.404ZM298.404 62.504H327.588C345.252 62.504 354.66 54.824 354.66 41.384C354.66 27.752 345.252 20.264 327.588 20.264H298.404V62.504ZM432.674 -0.85601H460.514L512.738 137H487.97L476.066 105.512H416.546L404.834 137H380.45L432.674 -0.85601ZM446.114 26.408L424.61 84.008H468.002L446.114 26.408ZM633.503 -0.85601V137H611.999L543.647 35.816V137H520.031V-0.85601H545.375L609.887 95.72V-0.85601H633.503Z" fill="#F1F1F1"/>
</g>
<g clip-path="url(#clip1_30_21)">
<path d="M26.528 217.072C26.528 246.832 42.656 266.416 65.312 266.416C81.44 266.416 93.152 256.624 97.376 240.496L120.416 248.368C112.352 272.752 93.152 288.112 65.312 288.112C28.64 288.112 1.952 258.928 1.952 217.072C1.952 175.216 28.64 146.032 65.312 146.032C93.152 146.032 112.352 161.392 120.416 185.776L97.376 193.648C93.152 177.52 81.44 167.728 65.312 167.728C42.656 167.728 26.528 187.312 26.528 217.072ZM129.439 286V148.144H154.015V264.496H218.911V286H129.439ZM268.222 148.144H296.062L348.286 286H323.518L311.614 254.512H252.094L240.382 286H215.997L268.222 148.144ZM281.662 175.408L260.158 233.008H303.55L281.662 175.408ZM380.154 232.624V286H355.578V148.144H410.682C441.403 148.144 460.602 162.544 460.602 190.384C460.602 212.08 448.698 225.904 428.538 230.704L464.058 286H436.026L402.426 232.624H380.154ZM380.154 211.504H409.338C427.002 211.504 436.41 203.824 436.41 190.384C436.41 176.752 427.002 169.264 409.338 169.264H380.154V211.504ZM497.912 148.144V213.424L555.128 148.144H584.12L530.552 207.856L587.192 286H558.2L514.616 225.904L497.912 244.336V286H473.336V148.144H497.912ZM591.843 148.144H685.155V169.648H616.035V204.208H674.211V225.712H616.035V264.496H685.155V286H591.843V148.144Z" fill="#F1F1F1"/>
</g>
<defs>
<clipPath id="clip0_30_21">
<rect width="634" height="137" fill="white" transform="translate(6)"/>
</clipPath>
<clipPath id="clip1_30_21">
<rect width="693" height="144" fill="white" transform="translate(0 145)"/>
</clipPath>
</defs>
</svg>
